<svg viewBox="0 0 16 16" aria-hidden="true">
        <path d="M8 1.44c2.136 0 2.389.009 3.233.047.78.036 1.203.166 1.485.276.348.128.663.332.921.598.266.258.47.573.599.921.11.282.24.706.275 1.485.039.844.047 1.097.047 3.233s-.008 2.389-.047 3.232c-.035.78-.166 1.204-.275 1.486a2.65 2.65 0 0 1-1.518 1.518c-.282.11-.706.24-1.486.275-.843.039-1.097.047-3.233.047s-2.39-.008-3.232-.047c-.78-.035-1.204-.165-1.486-.275a2.5 2.5 0 0 1-.921-.599 2.5 2.5 0 0 1-.599-.92c-.11-.282-.24-.706-.275-1.486-.038-.844-.047-1.096-.047-3.232s.009-2.39.047-3.233c.036-.78.166-1.203.275-1.485.129-.348.333-.663.599-.921a2.5 2.5 0 0 1 .92-.599c.283-.11.707-.24 1.487-.275.843-.038 1.096-.047 3.232-.047z"></path>
        <path d="M8 3.892a4.108 4.108 0 1 0 0 8.216 4.108 4.108 0 0 0 0-8.216m0 6.775a2.668 2.668 0 1 1 0-5.335 2.668 2.668 0 0 1 0 5.335m4.27-5.978a.96.96 0 1 0 0-1.92.96.96 0 0 0 0 1.92"></path>
      </svg>